/* XPM */
static char * _500_setup_l_xpm[] = {
/* width height ncols cpp */
"48 48 12 2",
  /* Colors */
  "00 c #000000",
  "01 c #808000",
  "02 c #000080",
  "03 c #008080",
  "04 c #C0C0C0",
  "05 c #808080",
  "06 c #00FF00",
  "07 c #FFFF00",
  "08 c #0000FF",
  "09 c #00FFFF",
  "0A c #FFFFFF",
  ".. s None c None",
  "..........................................050505050505050505050505050505050505050505050505......",
  "........................................050A0A0A0A0A0A0A0A0A0A0A0A0A0A0A0A0A0A0A0A0A0A0A040500..",
  "........................................050A0A0A0A0A0A0A0A0A0A0A0A0A0A0A0A0A0A0A0A0A0A0A040500..",
  "........................................050A0A020202020202020202020202020202020202020A0A040500..",
  "........................................050A0A020808080808080808080808080808080808020A0A040500..",
  "........................................050A0A020808080808080808080808080808080808020A0A040500..",
  "........................................050A0A0208080A0808080808080808080808080808020A0A040500..",
  "........................................050A0A020808080808080808080808080808080808020A0A040500..",
  "........................................050A0A020808080808080808080808080808080808020A0A040500..",
  "........................................050A0A020808080808080808080808080808080808020A0A040500..",
  "..........................05050505050505000A0A020808080808080808080808080808080808020A0A040500..",
  "........................050A0A0A0A0A0A00050A0A020808080808080808080808080808080808020A0A040500..",
  "......................050505050505050000050A0A020808080808080808080808080808080208020A0A040500..",
  "....................05050505050505000400050A0A020808080808080808080808080808080208020A0A040500..",
  "..................0505050505050500040400050A0A020808080808080808080808080808080208020A0A040500..",
  "................050505050505050004040400050A0A020808080808080808080808080202020208020A0A040500..",
  "..............05050505050505000404040400050A0A020808080808080808080808080808080808020A0A040500..",
  "0505050505050505050505050500040404040400050A0A020202020202020202020202020202020202020A0A040500..",
  "..050A0A0A0A0A0A0A0A05050004040404040400050A0A0A0A0A0A0A0A0A0A0A0A0A0A0A0A0A0A0A0A0A0A0A040500..",
  "....050A0A0A0A0A0A0A05000404040404040400050A0A0A0A0A0A0A0A0A0A0A0A0A0A0A0A0A0A0A0A0A0A0A040500..",
  "......0505050505050500040404040404040400050404040404040404040404040404040404040404040404040500..",
  "......050505050505050004040404040404040000000000000000000000000000000000000000000000000000000400",
  "......050A0A0A0A0A0A0004040404040404040005050505050505050505050505050505050505050505050505040500",
  "......050A0A0A0A0A0A000404040404040405000A0A0A00000000000000000A0A0A0A0A0A0A0A0A0A0A0A0A0A0A0500",
  "......050A0A0A0A0A0A000404040404040504000A000006060101010104050000040404040505050505050504040500",
  "......050A0A0A0A0A0A0004040404040504050000070706060101010104040404000004040000000000000004040500",
  "......050A0A0A0A0A0A0004040404050405000305050707060601010104040404050500040404040404040404040500",
  "......050A0A0A0A0A0A0004040405040500030303050707060601010104040405050404000404040404040404040500",
  "......050A0A0A0A0A0A000404050405000909030305050706060101040404040505040A040004040404040404040500",
  "......050A0A0A0A0A0A0004050405050005090903030507070606010404040505040A0A0A00040404040404040400..",
  "......050A0A0A0A0A0A00050405050006060609090303050707060104040505040A040A0A0A0000000000000000....",
  "......05040A040A040A00040505050004060606090903030707060104040504040A0A0A0A0500..................",
  "......050A040A040A040005050500040A0404060604090303070601040505040A04040405050500................",
  "......05040404040404000505050004040404040606050904030000000504040404050505050500................",
  "......0504040404040400050505000404040404040406040500......0004040505050505050400................",
  "......0504040404040400050505000505050505050505050400......0005050504040404040400................",
  "......0504040404040400050505000404040404040404040500......0004040404040404040400................",
  "......0504040404040400050505000A0A0A0A040A040405050500000005040A0A040A0A0A0A0A00................",
  "......0504040404040400050505000A0A0A040A040405050504010706030906060A040A040A0400................",
  "......050404040404040005050505000A040A04050505050405010707030303060604040A0400..................",
  "......050404040404040005050505000404050505050504050101070704050309060604040A00..................",
  "......050404040404040005050500..00050505050504050401010707060405030406060400....................",
  "......0504040404040400050500....000505050504050401010A0707060405030304060600....................",
  "......05040404040404000500........0005050405040401010407070606040303090400......................",
  "......050404040404040000............000405040404010404070704060405030300........................",
  "......0000000000000000................00000404010104040707040604040000..........................",
  "..........................................000001040A0407070A060000..............................",
  "..............................................0000000000000000..................................",
};
