/* XPM */
static char * F:\Documents and Settings\Lee\Desktop\OOo Icons\collected_gulls\calctemplate_48_xpm[] = {
"48 48 256 2",
"  	c None",
". 	c #000000",
"+ 	c #800080",
"@ 	c #000080",
"# 	c #008080",
"$ 	c #008000",
"% 	c #808000",
"& 	c #800000",
"* 	c #C0C0C0",
"= 	c #C0DCC0",
"- 	c #A6CAF0",
"; 	c #808080",
"> 	c #FF00FF",
", 	c #0000FF",
"' 	c #00FFFF",
") 	c #00FF00",
"! 	c #FFFF00",
"~ 	c #FF0000",
"{ 	c #FFFFFF",
"] 	c #FFFBF0",
"^ 	c #A0A0A4",
"/ 	c #040404",
"( 	c #080808",
"_ 	c #0C0C0C",
": 	c #111111",
"< 	c #161616",
"[ 	c #1C1C1C",
"} 	c #222222",
"| 	c #292929",
"1 	c #555555",
"2 	c #4D4D4D",
"3 	c #424242",
"4 	c #393939",
"5 	c #FF7C80",
"6 	c #FF5050",
"7 	c #D60093",
"8 	c #CCECFF",
"9 	c #EFD6C6",
"0 	c #E7E7D6",
"a 	c #ADA990",
"b 	c #330000",
"c 	c #660000",
"d 	c #990000",
"e 	c #CC0000",
"f 	c #003300",
"g 	c #333300",
"h 	c #663300",
"i 	c #993300",
"j 	c #CC3300",
"k 	c #FF3300",
"l 	c #006600",
"m 	c #336600",
"n 	c #666600",
"o 	c #996600",
"p 	c #CC6600",
"q 	c #FF6600",
"r 	c #009900",
"s 	c #339900",
"t 	c #669900",
"u 	c #999900",
"v 	c #CC9900",
"w 	c #FF9900",
"x 	c #00CC00",
"y 	c #33CC00",
"z 	c #66CC00",
"A 	c #99CC00",
"B 	c #CCCC00",
"C 	c #FFCC00",
"D 	c #66FF00",
"E 	c #99FF00",
"F 	c #CCFF00",
"G 	c #000033",
"H 	c #330033",
"I 	c #660033",
"J 	c #990033",
"K 	c #CC0033",
"L 	c #FF0033",
"M 	c #003333",
"N 	c #333333",
"O 	c #663333",
"P 	c #993333",
"Q 	c #CC3333",
"R 	c #FF3333",
"S 	c #006633",
"T 	c #336633",
"U 	c #666633",
"V 	c #996633",
"W 	c #CC6633",
"X 	c #FF6633",
"Y 	c #009933",
"Z 	c #339933",
"` 	c #669933",
" .	c #999933",
"..	c #CC9933",
"+.	c #FF9933",
"@.	c #00CC33",
"#.	c #33CC33",
"$.	c #66CC33",
"%.	c #99CC33",
"&.	c #CCCC33",
"*.	c #FFCC33",
"=.	c #33FF33",
"-.	c #66FF33",
";.	c #99FF33",
">.	c #CCFF33",
",.	c #FFFF33",
"'.	c #000066",
").	c #330066",
"!.	c #660066",
"~.	c #990066",
"{.	c #CC0066",
"].	c #FF0066",
"^.	c #003366",
"/.	c #333366",
"(.	c #663366",
"_.	c #993366",
":.	c #CC3366",
"<.	c #FF3366",
"[.	c #006666",
"}.	c #336666",
"|.	c #666666",
"1.	c #996666",
"2.	c #CC6666",
"3.	c #009966",
"4.	c #339966",
"5.	c #669966",
"6.	c #999966",
"7.	c #CC9966",
"8.	c #FF9966",
"9.	c #00CC66",
"0.	c #33CC66",
"a.	c #99CC66",
"b.	c #CCCC66",
"c.	c #FFCC66",
"d.	c #00FF66",
"e.	c #33FF66",
"f.	c #99FF66",
"g.	c #CCFF66",
"h.	c #FF00CC",
"i.	c #CC00FF",
"j.	c #009999",
"k.	c #993399",
"l.	c #990099",
"m.	c #CC0099",
"n.	c #000099",
"o.	c #333399",
"p.	c #660099",
"q.	c #CC3399",
"r.	c #FF0099",
"s.	c #006699",
"t.	c #336699",
"u.	c #663399",
"v.	c #996699",
"w.	c #CC6699",
"x.	c #FF3399",
"y.	c #339999",
"z.	c #669999",
"A.	c #999999",
"B.	c #CC9999",
"C.	c #FF9999",
"D.	c #00CC99",
"E.	c #33CC99",
"F.	c #66CC66",
"G.	c #99CC99",
"H.	c #CCCC99",
"I.	c #FFCC99",
"J.	c #00FF99",
"K.	c #33FF99",
"L.	c #66CC99",
"M.	c #99FF99",
"N.	c #CCFF99",
"O.	c #FFFF99",
"P.	c #0000CC",
"Q.	c #330099",
"R.	c #6600CC",
"S.	c #9900CC",
"T.	c #CC00CC",
"U.	c #003399",
"V.	c #3333CC",
"W.	c #6633CC",
"X.	c #9933CC",
"Y.	c #CC33CC",
"Z.	c #FF33CC",
"`.	c #0066CC",
" +	c #3366CC",
".+	c #666699",
"++	c #9966CC",
"@+	c #CC66CC",
"#+	c #FF6699",
"$+	c #0099CC",
"%+	c #3399CC",
"&+	c #6699CC",
"*+	c #9999CC",
"=+	c #CC99CC",
"-+	c #FF99CC",
";+	c #00CCCC",
">+	c #33CCCC",
",+	c #66CCCC",
"'+	c #99CCCC",
")+	c #CCCCCC",
"!+	c #FFCCCC",
"~+	c #0000FF",
"{+	c #0000EA",
"]+	c #0000D5",
"^+	c #0000C0",
"/+	c #0000AA",
"(+	c #FFFFCC",
"_+	c #000095",
":+	c #00006B",
"<+	c #000055",
"[+	c #000040",
"}+	c #00002B",
"|+	c #6633FF",
"1+	c #800080",
"2+	c #8A158A",
"3+	c #952A95",
"4+	c #9F3F9F",
"5+	c #AA55AA",
"6+	c #B46AB4",
"7+	c #BF7FBF",
"8+	c #CA94CA",
"9+	c #D4AAD4",
"0+	c #DFBFDF",
"a+	c #E9D4E9",
"b+	c #FFFFFF",
"c+	c #000080",
"d+	c #15158A",
"e+	c #2A2A95",
"f+	c #3F3F9F",
"g+	c #5555AA",
"h+	c #6A6AB4",
"i+	c #7F7FBF",
"j+	c #9494CA",
"k+	c #AAAAD4",
"l+	c #BFBFDF",
"m+	c #D4D4E9",
"n+	c #FFFFFF",
"o+	c #CCFFFF",
"p+	c #FF6666",
"q+	c #66FF66",
"r+	c #FFFF66",
"s+	c #6666FF",
"t+	c #FF66FF",
"u+	c #66FFFF",
"v+	c #A50021",
"w+	c #5F5F5F",
"x+	c #777777",
"y+	c #868686",
"z+	c #969696",
"A+	c #CBCBCB",
"B+	c #B2B2B2",
"C+	c #D7D7D7",
"D+	c #DDDDDD",
"E+	c #E3E3E3",
"F+	c #EAEAEA",
"G+	c #F1F1F1",
"            x+x+x+x+x+x+x+x+x+x+x+x+x+x+x+x+x+x+x+x+x+x+x+x+x+x+x+x+x+x+x+x+x+x+x+x+x+x+        ",
"            x+B B B B B B B B B B B B B B B B B B B B B B B B B B B B B B B B B B B B 1         ",
"            x+B B B B B B B B B B B B B B B B B B B B B B B B B B B B B B B B B B B B 1         ",
"            x+B B B B B B B B B B B B B B B B B B B B B B B B B B B B B B B B B B B B 1         ",
"            x+B B B B B B B B B B B B B B B B B B B B B B B B B B B B B B B B B B B B 1         ",
"            x+; ; ; ; ; ; ; ; ; ; ; ; ; ; ; ; ; ; ; ; ; ; ; ; ; ; ; ; ; ; ; ; ; ; ; ; 1         ",
"            x+F+F+F+F+C+C+* * * * * B+B+B+B+B+B+B+z+z+z+z+z+z+z+z+z+z+z+z+z+z+z+z+z+z+1         ",
"            x+{ { { { { { { { F+F+F+F+F+F+C+C+)+)+)+)+* * * * * * B+B+B+B+B+B+B+B+B+B+1         ",
"            x+{ ] ] ] ] ] ] ] ] ] ] ] ] ] B+2 _ . 1 F+F+F+F+F+F+F+C+C+C+C+C+C+C+C+C+C+1         ",
"            x+{ ] ] ] ] ] ] ] ] ] ] ] G+1 . . |.C+] D+D+D+D+D+D+D+D+D+D+D+D+D+F+F+0 )+1         ",
"            x+{ ] ] ] ] ] ] ] ] ] ] ] 1 . _ * ] ] ] ] ] ] D+z+z+z+z+z+z+z+z+D+F+F+0 )+1         ",
"            x+{ ] ] ] ] ] ] G+^ 1 N | . _ )+] ] ] ] ] ] ] ] z+z+z+z+z+z+z+z+D+F+0 0 )+1         ",
"            x+{ ] ] ] ] ] ^ _ . . . . . y+] D+D+D+D+D+D+D+D+D+D+D+D+D+D+D+D+D+F+0 0 )+1         ",
"            x+{ ] ] ] ] z+. _ |.* C+)+z+G+] ] ] ] ] ] ] ] D+] ] ] ] ] ] ] ] D+0 0 0 )+1         ",
"            x+{ ] ] ] * _ |.G+] ] ] ] ] ] ] ] ] ] ] ] ] ] D+] ] ] ] ] ] ] ] D+0 0 0 )+1         ",
"            x+{ ] ] ] w+* ] ] ] )+|.3 | 1 ] D+D+D+D+D+D+D+D+D+D+D+D+D+D+D+D+D+0 0 0 )+1         ",
"            x+{ ] ] ] ] ] ] E+2 . . | B+] ] ] ] ] ] ] ] ] D+] ] ] ] ] ] ] ] D+F+0 0 )+1         ",
"            x+{ ] ] ] ] ] C+[ . . |.] ] ] ] ] ] ] ] ] ] ] D+] ] ] ] ] ] ] ] D+0 0 0 )+1         ",
"            x+{ ] ] ] ] E+[ . . ^ ] ] D+D+D+D+D+D+D+D+D+D+D+D+D+D+D+D+D+D+D+D+F+0 0 )+1         ",
"            x+{ ] ] ] ] 3 . . y+] ] z+z+D+] ] ] ] ] ] ] ] D+] ] ] ] ] ] ] ] D+0 0 0 )+1         ",
"            x+{ ] )+^ 1 . . 3 ] z+z+z+z+D+] ] ] ] ] ] ] ] D+] ] ] ] ] ] ] ] D+0 0 0 )+1         ",
"            )+x+[ . . . . . ] D+D+D+D+D+D+D+D+D+D+D+D+D+D+D+D+D+D+D+D+D+D+D+D+0 0 0 )+1         ",
"          ^ _ . . . . . . | ] z+z+z+z+z+D+] ] ] ] ] ] ] ] D+] ] ] ] ] ] ] ] D+0 0 0 )+1         ",
"        y+. . _ 1 B+C+G+] ] ] z+z+z+z+z+D+] ] ] ] ] ] ] ] D+] ] ] ] ] ] ] ] D+0 0 0 )+1         ",
"      B+. . 1 E+] ] ] ] D+D+D+D+D+D+D+D+D+D+D+D+D+D+D+D+D+D+D+D+D+D+D+D+D+D+D+0 0 0 )+1         ",
"    B+_ _ y+)+{ ] ] ] D+z+z+z+z+z+z+z+z+D+] ] ] ] ] ] ] ] D+] ] ] ] h+h+h+h+D+0 0 0 )+1         ",
"    y+[ B+  x+{ ] ] ] D+z+z+z+z+z+z+z+z+D+] ] ] ] ] ] ] ] D+] ] ] ] h+.+.+o.D+0 0 0 )+1         ",
"    1 y+    x+{ ] ] ] D+D+D+D+D+D+D+D+D+D+D+D+D+D+D+D+D+D+D+D+D+D+D+h+.+.+o.D+0 0 0 )+1         ",
"            x+{ ] ] ] D+z+z+z+z+z+z+z+z+D+] ] ] ] ] ] ] ] D+] ] ] ] h+.+.+o.D+0 0 0 )+1         ",
"            x+{ ] ] ] D+z+z+z+z+z+z+z+z+D+] ] ] ] ] ] ] ] D+k.k.k.k.h+.+.+o.D+0 0 0 )+1         ",
"            x+{ ] ] ] D+D+D+D+D+D+D+D+D+D+D+D+D+D+D+D+D+D+D+k.+ + + h+.+.+o.D+0 0 0 )+1         ",
"            x+{ ] ] ] D+z+z+z+z+z+z+z+z+D+] ] ] ] ] ] ] ] D+k.+ + + h+.+o.o.D+0 0 0 )+1         ",
"            x+{ ] ] ] D+z+z+z+z+z+z+z+z+D+] ] ] ] ] ] ] ] D+k.+ + + h+.+o.o.D+0 0 0 )+1         ",
"            x+{ ] ] ] D+D+D+D+D+D+D+D+D+D+D+D+D+D+D+, , , , k.+ + + h+.+o.o.D+0 0 0 )+1         ",
"            x+{ ] ] ] D+z+z+z+z+z+z+z+z+D+] ] ] ] ] , P.P.P.k.+ + + h+.+o.o.D+0 0 0 )+1         ",
"            x+{ ] ] ] D+z+z+z+z+z+z+z+z+D+] ] ] ] ] , P.n.n.k.+ + + h+.+o.@ D+0 0 0 )+1         ",
"            x+{ ] ] ] D+D+D+D+D+D+D+D+D+D+D+D+D+D+D+, P.n.n.k.+ + + h+o.o.@ D+0 0 0 )+1         ",
"            x+{ ] ] ] D+z+z+z+z+z+z+z+z+D+] h+h+h+h+, P.n.n.k.+ + + h+o.o.@ D+0 0 0 )+1         ",
"            x+{ ] ] ] D+z+z+z+z+z+z+z+z+D+] h+h+.+.+, P.n.'.k.+ + + h+o.@ @ D+0 0 0 )+1         ",
"            x+{ ] ] ] D+D+D+D+D+D+D+D+D+D+D+h+.+.+.+, n.n.'.k.+ + + h+o.@ @ D+0 0 0 )+1         ",
"            x+{ ] ] ] D+z+z+z+z+z+z+z+z+D+] h+.+.+.+, n.'.'.k.+ + + h+o.@ @ D+0 0 0 )+1         ",
"            x+{ ] ] ] D+z+z+z+z+z+z+z+z+D+] h+.+.+.+, '.'.'.k.+ + + h+@ @ @ D+0 0 0 )+1         ",
"            x+{ ] ] G+D+D+D+D+D+D+D+D+D+D+D+D+D+D+D+D+D+D+D+D+D+D+D+D+D+D+D+D+0 0 0 )+1         ",
"            x+{ ] G+] G+G+F+G+F+G+F+G+F+F+F+F+0 F+0 F+0 0 0 0 0 0 0 0 0 0 0 0 0 0 0 )+1         ",
"            x+{ G+] G+G+G+G+F+G+F+F+F+F+F+0 0 F+0 0 0 0 0 0 0 0 0 0 0 0 0 0 0 0 0 0 )+1         ",
"            x+{ ] F+F+F+F+F+F+F+0 F+0 F+0 F+0 0 0 0 0 0 0 0 0 0 0 0 0 0 0 0 0 0 0 0 )+1         ",
"            x+{ )+)+)+)+)+)+)+)+)+)+)+)+)+)+)+)+)+)+)+)+)+)+)+)+)+)+)+)+)+)+)+)+)+)+)+1         ",
"            1 1 1 1 1 1 1 1 1 1 1 1 1 1 1 1 1 1 1 1 1 1 1 1 1 1 1 1 1 1 1 1 1 1 1 1 1 1         "};
