/* XPM */
static char * _500_setup_s_xpm[] = {
/* width height ncols cpp */
"24 24 12 2",
  /* Colors */
  "00 c #000000",
  "01 c #000080",
  "02 c #008080",
  "03 c #C0C0C0",
  "04 c #808080",
  "05 c #FF0000",
  "06 c #00FF00",
  "07 c #FFFF00",
  "08 c #0000FF",
  "09 c #00FFFF",
  "0A c #FFFFFF",
  ".. s None c None",
  "..................04040404040404040404040404....",
  "..................040A0A0A0A0A0A0A0A0A0A0A0400..",
  "..................040A0101010101010101010A0400..",
  "..................040A0103030909090303010A0400..",
  "..............0303040A0103090A09030302010A0400..",
  "............030A0A000A01090A0903030202010A0400..",
  "..........04040400000A010A090303020208010A0400..",
  "........0404040003000A0109030302020808010A0400..",
  "040404040404000303000A0101010101010101010A0400..",
  "..030A0A0A00030303000A0A0A0A0A0A0A0A0A0A0A0400..",
  "..04040404000303030000000000000000000000000000..",
  "..040A0A0A00030303000A00000000000303030303030300",
  "..040A0A0A000303030000060706070A0003000000000300",
  "..040A0A0A000303000009060707070A09000A0A0A0A0300",
  "..040A0A0A0003040009090607070A090303000303030300",
  "..040A0A0A000400030A090907070A0303040300000000..",
  "..04030A03000300030309090400040304030400........",
  "..040A030A0004000304030A00..000403040300........",
  "..04030A03000300040304030400040904030400........",
  "..040A030A000400030403040307090909040300........",
  "..04030A03000000040304030306070A090600..........",
  "..040A030A00....00040304030707070900............",
  "..00000000........0000030503070000..............",
  "......................00000000..................",
};
