/* XPM */
static char * _001_star_butterfly_s_xpm[] = {
"16 16 92 2",
"  	c None",
". 	c #F8FCF8",
"+ 	c #FBFEF9",
"@ 	c #FFFFFF",
"# 	c #F9FDF8",
"$ 	c #F5FFFF",
"% 	c #B4B5B0",
"& 	c #E2F2F4",
"* 	c #F9FDF9",
"= 	c #484D50",
"- 	c #000000",
"; 	c #454C4A",
"> 	c #C9CFCF",
", 	c #FDFEF9",
"' 	c #FFFFFD",
") 	c #E1E2DE",
"! 	c #293031",
"~ 	c #EAF1EF",
"{ 	c #FFFFFE",
"] 	c #D7EDEE",
"^ 	c #DDF5F8",
"/ 	c #C6DAE9",
"( 	c #22211A",
"_ 	c #BED6D8",
": 	c #E4F9FA",
"< 	c #62BAF9",
"[ 	c #64BEFE",
"} 	c #5AB2E2",
"| 	c #174B6D",
"1 	c #63ADE5",
"2 	c #84D1FF",
"3 	c #5799CD",
"4 	c #6FCCFF",
"5 	c #55C2F8",
"6 	c #59CEFF",
"7 	c #243D4B",
"8 	c #60C0ED",
"9 	c #67E6FF",
"0 	c #4DA8DE",
"a 	c #0C5373",
"b 	c #042332",
"c 	c #399AC9",
"d 	c #58C7FD",
"e 	c #60C1F8",
"f 	c #65CDFF",
"g 	c #63DBFF",
"h 	c #29434F",
"i 	c #021F28",
"j 	c #62BCED",
"k 	c #64C9FF",
"l 	c #3CB2F8",
"m 	c #3EB5FB",
"n 	c #46CBFF",
"o 	c #053046",
"p 	c #1A4F63",
"q 	c #4ACFFF",
"r 	c #3DB5FC",
"s 	c #43BCFF",
"t 	c #49CAFF",
"u 	c #30B3F8",
"v 	c #256A8E",
"w 	c #052B39",
"x 	c #47CEFF",
"y 	c #4FBBF8",
"z 	c #4FBCF9",
"A 	c #6CD8FF",
"B 	c #2779A2",
"C 	c #51ABEA",
"D 	c #50BFFE",
"E 	c #F3FCF4",
"F 	c #38312C",
"G 	c #1D1D1A",
"H 	c #8F9A98",
"I 	c #8C9791",
"J 	c #798383",
"K 	c #F2FBF4",
"L 	c #E9FFFF",
"M 	c #31424E",
"N 	c #C7CFCD",
"O 	c #F2FFFF",
"P 	c #E3F8FB",
"Q 	c #E2F8FB",
"R 	c #D7EBEE",
"S 	c #7CBBDA",
"T 	c #000300",
"U 	c #98E3FF",
"V 	c #85DAFF",
"W 	c #7FD1F9",
"X 	c #76B3CF",
"Y 	c #99E3FF",
"Z 	c #88D6FC",
"` 	c #88D4F8",
"@ @ @ @ @ @ @ @ @ @ @ @ @ @ ) . ",
"@ @ @ @ @ @ @ @ @ @ @ @ H ! ! J ",
"@ @ @ @ @ @ @ @ @ @ @ I T J . @ ",
"@ @ @ @ @ @ @ @ J F ( T = @ @ @ ",
"m m m m m m m b w a v p l m m m ",
"m m m m m m a | l m m m m m m m ",
"D D D D D D c l D c | 7 B D D D ",
"` ` ` ` ` ` ` ` p T ! 3 ` ` ` ` ",
"` ` ` ` ` ` ` = - h ` ` ` ` ` ` ",
"` ` ` ` ` ` J - ! ` ` ` ` ` ` ` ",
"` ` ` J 7 G - T X ` ` ` ` ` ` ` ",
"` S 7 - G 7 7 M ` ` ` ` ` ` ` ` ",
"4 w G v 4 4 4 4 4 4 4 4 4 4 4 4 ",
"v b c m m m m m m m m m m m m m ",
"v l m m m m m m m m m m m m m m ",
"m m m m m m m m m m m m m m m m "};
